<?xml version="1.0" standalone="no"?>
<!DOCTYPE svg PUBLIC "-//W3C//DTD SVG 20010904//EN"
 "http://www.w3.org/TR/2001/REC-SVG-20010904/DTD/svg10.dtd">
<svg version="1.0" xmlns="http://www.w3.org/2000/svg"
 width="3464.000000pt" height="3464.000000pt" viewBox="0 0 3464.000000 3464.000000"
 preserveAspectRatio="xMidYMid meet">
<metadata>
Created by potrace 1.14, written by Peter Selinger 2001-2017
</metadata>
<g transform="translate(0.000000,3464.000000) scale(0.100000,-0.100000)"
fill="#000000" stroke="none">
<path d="M5335 22583 c-221 -36 -329 -65 -479 -128 -87 -36 -183 -80 -215 -98
-31 -18 -69 -39 -86 -47 -41 -20 -152 -132 -165 -165 -18 -48 -11 -95 25 -164
41 -78 92 -134 149 -163 37 -19 51 -20 190 -13 83 3 154 8 157 11 4 2 26 35
49 74 47 77 67 95 150 129 30 13 77 36 104 53 79 48 181 70 331 72 120 1 134
-1 180 -24 43 -21 55 -35 84 -90 29 -57 32 -72 28 -119 -8 -77 -46 -146 -137
-249 -92 -103 -131 -127 -211 -127 -50 0 -62 5 -132 51 -41 29 -97 60 -124 69
-26 10 -79 31 -118 47 -38 16 -89 31 -111 35 -55 7 -65 -8 -99 -149 -59 -248
-75 -516 -40 -683 17 -78 19 -127 17 -360 -2 -148 -7 -330 -12 -403 -8 -131
-9 -134 -59 -240 -62 -132 -105 -292 -99 -367 6 -66 43 -119 102 -146 56 -25
95 -24 169 6 34 14 130 39 212 55 192 38 366 93 430 134 28 18 75 55 105 83
30 27 89 75 130 106 230 172 269 209 344 322 67 100 82 130 106 208 11 34 40
96 65 137 74 122 89 171 89 280 0 102 -19 189 -58 276 -22 48 -151 214 -167
214 -4 0 -17 19 -28 43 -38 79 -22 221 37 321 60 99 62 333 6 531 -38 132
-164 279 -305 355 -107 57 -150 74 -262 101 -90 21 -284 34 -352 22z m566
-1600 c46 -24 58 -36 84 -87 28 -55 30 -67 29 -165 0 -140 -20 -207 -87 -297
-154 -205 -371 -379 -490 -391 -43 -4 -58 -1 -87 19 -67 45 -72 68 -66 283 8
236 26 396 53 455 38 85 149 163 278 196 28 7 91 13 141 13 80 1 97 -2 145
-26z"/>
<path d="M16525 22535 c-162 -33 -407 -111 -510 -163 -38 -19 -94 -43 -124
-53 -64 -22 -223 -106 -301 -159 -30 -20 -85 -55 -121 -77 -126 -76 -274 -209
-333 -297 -45 -67 -34 -144 31 -224 64 -78 117 -85 218 -25 124 72 197 81 271
31 69 -47 88 -91 92 -210 3 -78 0 -110 -17 -160 -30 -96 -34 -160 -16 -281 9
-63 15 -155 14 -222 -3 -139 3 -151 90 -160 114 -12 120 -14 176 -69 57 -56
75 -88 75 -137 0 -68 -45 -109 -119 -109 -28 0 -50 9 -86 36 -33 26 -59 37
-83 38 -45 1 -54 -16 -78 -146 -22 -123 -17 -136 70 -177 54 -26 68 -38 85
-74 56 -116 -6 -183 -144 -158 -49 9 -64 18 -99 56 -47 49 -61 53 -113 28 -48
-22 -73 -66 -73 -128 0 -57 19 -101 82 -195 76 -114 113 -107 285 58 114 110
123 122 153 211 12 35 32 78 44 95 13 17 40 66 60 110 19 43 58 109 86 147 51
68 175 187 231 221 17 10 52 36 79 57 27 21 91 55 144 75 53 21 123 58 157 82
69 51 98 102 124 219 43 196 70 240 182 294 37 18 76 40 85 48 18 16 158 263
158 278 0 5 18 38 39 74 61 103 75 174 75 396 1 150 -2 199 -15 231 -28 73
-112 195 -172 249 -70 64 -224 159 -292 181 -71 22 -318 28 -410 9z m253 -460
c65 -20 126 -77 143 -134 10 -33 8 -69 -11 -213 -38 -298 -44 -323 -95 -401
-25 -37 -69 -95 -98 -127 -73 -82 -133 -168 -165 -237 -26 -55 -27 -66 -27
-208 -1 -82 -5 -158 -9 -168 -12 -25 -59 -47 -116 -54 -41 -5 -59 -1 -104 21
-106 52 -152 142 -143 279 3 40 10 257 16 482 13 538 15 575 39 629 21 46 77
96 142 123 78 34 328 39 428 8z"/>
<path d="M10003 22431 c-75 -22 -260 -142 -343 -222 -47 -45 -60 -65 -78 -124
-49 -158 -53 -298 -13 -477 22 -98 40 -136 87 -191 18 -22 47 -76 65 -120 78
-199 113 -257 200 -337 154 -143 208 -203 251 -284 68 -127 122 -226 159 -291
26 -48 33 -71 33 -112 -2 -131 -173 -287 -314 -286 -69 1 -107 19 -167 81 -62
65 -82 114 -98 247 -21 164 -33 182 -170 246 -49 24 -74 30 -98 25 -33 -6 -85
-51 -106 -93 -28 -54 2 -370 46 -488 18 -46 42 -87 73 -120 25 -27 72 -85 104
-127 66 -88 112 -128 181 -158 58 -25 231 -51 343 -51 116 0 162 23 289 145
164 157 207 263 220 541 7 162 -4 238 -58 380 -59 158 -89 213 -204 375 -25
36 -63 92 -85 125 -21 33 -63 93 -92 132 -210 287 -205 280 -235 366 -25 73
-29 149 -13 209 13 46 77 105 125 114 113 21 193 -34 229 -160 29 -98 68 -128
181 -141 126 -15 145 -12 171 21 28 35 31 83 10 182 -8 37 -21 102 -30 144
-11 59 -27 97 -70 170 -71 119 -75 124 -173 192 -149 103 -273 129 -420 87z"/>
<path d="M11600 22391 c-222 -8 -267 -15 -334 -54 -56 -32 -75 -63 -87 -142
-19 -122 2 -221 53 -255 17 -10 71 -16 193 -20 274 -11 303 -34 360 -290 29
-128 30 -165 9 -324 -18 -128 -16 -164 22 -385 16 -93 16 -117 5 -235 -23
-238 -24 -286 -6 -381 19 -102 21 -254 5 -317 -6 -24 -22 -75 -36 -115 -45
-132 -27 -240 43 -270 46 -20 227 -34 266 -20 36 12 57 54 63 130 3 34 9 512
13 1062 6 981 7 1001 27 1045 30 64 99 124 167 144 76 22 100 20 203 -14 102
-36 156 -34 197 4 33 31 44 75 52 217 5 90 4 123 -8 150 -26 63 -30 64 -246
64 -108 0 -320 3 -471 7 -151 3 -372 3 -490 -1z"/>
<path d="M14685 22385 c-38 -8 -128 -17 -200 -20 -174 -8 -662 -80 -753 -111
-23 -7 -95 -23 -160 -34 -150 -27 -171 -34 -265 -88 -114 -66 -120 -77 -115
-189 6 -108 33 -175 87 -210 46 -31 98 -29 212 6 52 16 132 36 179 46 107 21
156 35 250 73 58 23 114 34 245 51 94 11 201 30 240 41 85 24 167 26 261 4 88
-21 134 -14 168 27 34 41 46 88 46 192 0 197 -41 242 -195 212z"/>
<path d="M8457 22280 c-46 -8 -90 -49 -118 -108 -19 -39 -23 -75 -35 -309 -7
-145 -15 -272 -18 -281 -3 -9 -12 -80 -21 -156 -13 -118 -14 -164 -4 -300 13
-185 4 -305 -36 -470 -13 -56 -35 -150 -50 -211 -34 -145 -69 -216 -144 -291
-79 -79 -154 -117 -234 -116 -69 0 -108 14 -163 58 -62 50 -99 116 -137 249
-55 190 -71 304 -98 712 -12 185 -9 339 12 643 6 91 9 224 7 295 -5 156 -15
177 -101 235 -62 42 -111 56 -153 46 -39 -10 -111 -83 -128 -129 -30 -84 -49
-256 -50 -472 -1 -115 -6 -262 -10 -325 -6 -93 -5 -130 9 -190 34 -157 55
-302 69 -495 11 -140 21 -216 34 -255 23 -64 187 -391 219 -436 12 -16 34 -61
49 -99 51 -130 102 -193 202 -254 82 -50 179 -71 327 -74 107 -1 131 6 253 79
58 35 144 42 241 20 82 -19 275 -32 314 -22 16 4 34 19 44 39 15 29 17 122 21
1087 4 1044 4 1057 -17 1200 -12 80 -27 162 -33 183 -13 43 -68 112 -107 131
-35 18 -98 25 -144 16z"/>
<path d="M13985 21194 c-11 -2 -45 -9 -75 -15 -30 -6 -82 -24 -115 -39 -33
-16 -96 -44 -140 -62 -77 -33 -208 -121 -250 -168 -11 -12 -81 -62 -155 -111
-100 -65 -152 -107 -201 -161 -70 -78 -170 -226 -200 -295 -9 -22 -32 -72 -51
-110 -30 -61 -33 -77 -33 -154 0 -82 2 -90 45 -174 34 -67 63 -106 115 -158
124 -122 245 -165 490 -174 156 -6 220 2 390 48 134 36 264 49 462 46 l188 -2
145 49 c235 78 240 83 239 196 0 41 -4 109 -9 150 -14 126 -44 133 -280 66
-130 -38 -379 -94 -537 -121 -220 -37 -541 -37 -653 2 -106 37 -144 129 -100
245 39 106 302 328 459 390 14 5 57 19 94 29 37 11 102 37 145 59 53 27 109
45 179 59 146 29 202 69 238 172 40 112 8 195 -82 219 -48 13 -271 23 -308 14z"/>
<path d="M26245 18064 c-69 -7 -149 -26 -186 -44 -35 -19 -103 -98 -132 -155
-8 -17 -23 -67 -33 -110 -17 -74 -18 -166 -19 -1235 0 -1199 -3 -1289 -42
-1332 -12 -14 -19 -15 -34 -5 -20 12 -34 52 -64 187 -9 41 -34 129 -55 196
-22 66 -50 172 -64 235 -14 63 -37 146 -51 184 -15 39 -42 136 -60 216 -19 80
-44 170 -56 200 -30 77 -37 101 -60 216 -11 56 -35 144 -53 195 -18 51 -45
158 -60 238 -17 92 -40 174 -61 225 -19 44 -41 107 -51 140 -9 33 -31 87 -49
120 -18 33 -43 91 -55 129 -28 86 -95 160 -155 172 -47 8 -191 -1 -228 -15
-41 -16 -122 -89 -145 -130 -11 -20 -28 -76 -37 -126 -9 -49 -30 -121 -47
-160 -33 -77 -52 -138 -63 -200 -4 -22 -25 -96 -47 -165 -23 -74 -47 -178 -58
-255 -21 -139 -39 -233 -70 -354 -10 -42 -30 -157 -45 -256 -14 -99 -39 -227
-56 -284 -17 -57 -41 -154 -54 -216 -14 -66 -36 -138 -55 -176 -17 -35 -47
-100 -65 -144 -18 -44 -43 -97 -54 -116 -12 -20 -38 -87 -59 -150 -77 -228
-122 -309 -171 -309 -10 0 -73 21 -142 47 l-124 47 -180 4 c-99 2 -258 -1
-353 -6 -189 -12 -220 -7 -265 35 -54 52 -57 66 -57 277 0 267 23 381 85 422
14 9 75 22 141 31 l117 15 106 -27 c58 -15 141 -41 184 -56 113 -42 175 -40
333 12 144 47 191 80 221 157 38 99 7 282 -79 467 -57 123 -70 140 -146 197
-83 62 -125 75 -297 98 -88 11 -187 25 -220 30 -33 6 -121 10 -196 10 -122 0
-137 2 -157 20 -45 42 -57 79 -56 180 1 167 34 234 139 281 82 37 247 29 445
-23 48 -12 127 -21 221 -25 173 -7 187 -2 266 89 60 68 67 89 89 243 18 119
10 237 -20 340 -17 54 -106 172 -154 202 -15 9 -45 32 -67 50 -45 38 -118 63
-278 95 -166 33 -352 29 -742 -16 -358 -40 -373 -43 -515 -98 -91 -35 -111
-47 -150 -91 -90 -101 -120 -127 -145 -127 -17 0 -46 22 -100 79 -63 65 -91
86 -170 124 -123 60 -175 75 -293 83 -159 10 -270 -8 -438 -70 -114 -43 -168
-69 -247 -123 -143 -96 -245 -221 -288 -352 -12 -36 -37 -101 -56 -145 -42
-98 -63 -226 -63 -376 0 -138 17 -226 52 -272 58 -75 172 -267 189 -317 11
-30 45 -98 76 -150 67 -112 196 -246 289 -301 32 -19 74 -47 92 -62 19 -16 52
-40 75 -55 67 -42 164 -122 259 -212 150 -144 225 -292 204 -403 -10 -53 -99
-150 -195 -213 -101 -66 -127 -74 -256 -82 -117 -7 -201 10 -266 54 -23 16
-56 36 -73 47 -17 10 -60 38 -96 62 -206 138 -358 35 -377 -256 -6 -90 15
-195 57 -285 19 -41 307 -358 415 -457 33 -30 91 -71 129 -92 66 -34 74 -36
165 -36 53 1 121 7 151 14 158 39 257 73 367 128 119 59 171 96 323 233 158
142 187 146 232 30 23 -56 40 -81 90 -129 74 -68 96 -79 206 -100 45 -9 113
-23 150 -31 211 -50 705 -79 947 -56 105 10 231 37 420 92 25 7 59 9 90 5 41
-7 57 -16 98 -57 169 -171 357 -108 485 164 59 125 77 176 96 279 8 42 28 110
44 150 16 40 40 114 52 163 30 121 56 164 122 201 53 29 53 29 218 28 145 -1
172 -4 223 -23 71 -28 101 -65 123 -152 9 -35 35 -111 59 -169 24 -58 57 -167
74 -243 33 -148 44 -174 102 -253 44 -60 213 -170 294 -191 103 -27 185 -14
245 40 67 61 95 59 240 -24 53 -30 59 -31 150 -27 109 5 136 16 221 89 49 43
61 60 102 158 78 184 102 377 102 843 1 369 2 378 63 378 48 0 116 -42 134
-82 9 -18 28 -71 43 -118 15 -47 36 -102 47 -123 10 -21 32 -91 49 -157 16
-66 41 -146 56 -177 14 -32 36 -89 49 -128 14 -38 40 -94 59 -123 20 -29 47
-78 60 -109 32 -70 125 -188 168 -209 18 -9 74 -55 125 -103 52 -47 113 -99
135 -115 23 -16 57 -44 75 -62 21 -22 52 -39 88 -50 102 -29 237 2 252 59 3
12 21 51 40 87 39 74 43 114 25 250 -11 77 -41 174 -79 256 -8 17 -33 41 -54
53 -37 21 -40 26 -40 66 0 49 -26 116 -62 160 -13 17 -35 47 -47 68 -26 43
-65 72 -81 62 -6 -4 -15 -17 -20 -30 -14 -36 -44 -48 -64 -26 -23 25 -10 49
29 57 19 3 36 13 39 21 16 40 -42 143 -80 143 -7 0 -29 -10 -49 -21 -30 -18
-41 -20 -76 -11 -85 22 -92 -54 -11 -131 17 -17 35 -48 42 -75 7 -26 29 -69
47 -96 39 -55 123 -255 123 -293 0 -39 -17 -61 -70 -88 -62 -31 -84 -31 -162
0 -51 20 -75 39 -125 94 -85 94 -165 237 -212 379 -22 64 -50 149 -64 187 -14
39 -35 106 -47 150 -12 44 -34 103 -49 130 -16 28 -36 75 -46 105 -23 70 -41
107 -73 145 -14 17 -38 59 -54 94 -17 39 -46 80 -72 105 -31 28 -48 55 -56 86
-7 27 -25 57 -45 76 -18 17 -42 49 -53 70 -24 48 -45 58 -154 79 -46 9 -103
20 -127 25 -71 14 -126 -16 -137 -75 -3 -20 2 -62 15 -110 26 -94 36 -198 52
-524 14 -301 7 -498 -27 -706 -29 -184 -39 -221 -69 -251 -44 -44 -147 -26
-173 31 -36 79 -60 628 -82 1905 -6 305 -15 634 -20 730 -29 484 -24 592 31
707 35 73 63 92 180 120 58 14 114 18 264 18 185 -1 194 -2 345 -39 125 -30
172 -47 240 -85 47 -26 98 -54 114 -62 41 -20 268 -245 301 -299 15 -25 45
-63 65 -86 21 -23 45 -64 55 -95 22 -67 31 -78 50 -59 25 26 23 62 -6 110 -15
25 -37 83 -49 130 -12 46 -26 93 -32 105 -19 35 -237 262 -281 291 -23 16 -65
46 -93 66 -28 21 -82 49 -120 62 -38 13 -97 36 -132 50 -114 48 -180 57 -422
61 -124 1 -243 1 -265 -1z m-3097 -299 c170 -23 210 -39 249 -100 45 -68 44
-108 -2 -162 -54 -64 -101 -77 -243 -70 -64 4 -153 13 -197 21 -218 39 -432
45 -505 13 -19 -8 -64 -36 -99 -63 -58 -44 -70 -59 -114 -147 -72 -147 -80
-196 -79 -500 1 -286 8 -345 53 -407 48 -66 73 -72 283 -68 542 9 745 0 826
-40 43 -21 100 -95 100 -130 0 -61 -73 -132 -135 -132 -16 0 -61 11 -99 25
-38 13 -130 34 -205 46 -121 19 -164 21 -391 16 -291 -5 -341 -14 -397 -73
-50 -53 -57 -110 -47 -364 11 -257 9 -367 -6 -561 -24 -287 23 -355 269 -395
95 -15 131 -16 395 -4 166 7 338 10 399 5 95 -6 117 -11 177 -41 90 -46 104
-68 101 -162 -2 -50 -53 -98 -116 -108 -67 -10 -284 10 -435 41 -169 33 -234
32 -341 -5 -165 -57 -492 -65 -582 -13 -80 46 -86 122 -87 973 0 349 -5 811
-10 1025 -21 883 -23 1128 -10 1174 13 51 53 92 120 126 66 33 103 41 325 69
110 14 214 27 230 30 63 9 465 -4 573 -19z m-1993 -60 c53 -14 166 -65 228
-103 57 -36 97 -105 97 -167 0 -95 -54 -129 -138 -86 -20 10 -95 42 -167 71
-204 82 -295 80 -476 -11 -43 -21 -97 -58 -122 -81 -236 -229 -232 -222 -231
-403 0 -82 5 -138 17 -175 32 -107 206 -298 326 -360 24 -12 65 -41 90 -64 25
-24 60 -51 77 -61 17 -10 39 -31 48 -46 9 -16 35 -43 56 -60 22 -18 42 -41 46
-52 8 -24 136 -153 185 -186 20 -14 44 -36 54 -51 9 -14 33 -36 51 -48 19 -12
47 -40 62 -61 16 -22 43 -51 60 -66 39 -32 77 -112 91 -190 7 -35 25 -83 45
-115 43 -70 76 -168 76 -223 0 -58 -54 -286 -80 -336 -23 -47 -64 -111 -100
-160 -34 -44 -188 -167 -237 -187 -21 -9 -78 -35 -128 -60 -97 -46 -161 -63
-350 -89 -213 -30 -320 -8 -423 88 -146 134 -204 235 -188 323 18 95 117 97
233 5 52 -40 228 -128 283 -140 58 -13 172 -13 230 0 67 15 236 104 298 158
187 159 236 238 235 376 0 127 -60 363 -119 473 -26 48 -59 101 -74 117 -15
17 -47 57 -70 90 -61 85 -165 187 -231 226 -58 36 -114 80 -208 165 -31 28
-67 57 -81 64 -14 7 -43 30 -65 51 -121 116 -205 201 -205 209 0 5 -22 32 -49
62 -38 42 -58 77 -91 163 -58 150 -59 221 -5 385 46 142 54 157 124 249 50 66
153 160 221 202 54 33 258 109 320 118 76 11 213 4 285 -14z m3722 -107 c45
-31 78 -101 108 -233 29 -129 32 -193 9 -202 -8 -3 -57 4 -108 17 -104 25
-125 21 -150 -29 -22 -41 -63 -185 -106 -366 -20 -88 -51 -194 -68 -235 -16
-42 -40 -127 -52 -190 -21 -107 -31 -134 -89 -248 -15 -29 -27 -83 -37 -160
-18 -149 -17 -215 4 -277 28 -83 48 -89 412 -130 165 -19 188 -15 274 44 60
42 75 75 92 216 18 140 32 193 55 206 24 12 41 -14 64 -96 9 -33 36 -103 60
-155 24 -52 49 -124 55 -160 6 -36 28 -141 50 -235 22 -93 46 -237 55 -320 25
-231 33 -273 74 -365 66 -146 78 -244 35 -286 -29 -30 -68 -27 -96 9 -36 46
-107 206 -123 277 -10 41 -35 118 -56 171 -21 53 -47 134 -59 180 -21 84 -108
257 -147 291 -69 60 -198 77 -475 59 -216 -14 -262 -24 -308 -72 -30 -32 -54
-90 -70 -169 -7 -36 -32 -108 -56 -161 -23 -52 -47 -115 -54 -139 -6 -24 -31
-82 -55 -129 -23 -47 -50 -115 -60 -151 -21 -81 -46 -123 -89 -149 -48 -30
-90 -27 -116 7 -32 40 -24 131 23 242 19 47 49 138 66 203 36 141 104 320 167
440 25 49 64 147 85 219 22 72 46 143 54 159 24 45 45 148 45 219 0 102 20
238 46 320 13 41 31 131 39 200 30 247 37 286 70 399 19 64 45 172 59 241 14
69 39 163 56 209 17 47 39 126 50 176 24 122 39 149 92 169 80 28 113 25 175
-16z m-3827 -648 c40 -6 99 -27 155 -54 104 -51 290 -106 357 -106 85 0 149
-42 168 -109 12 -43 43 -779 38 -898 -2 -62 -7 -87 -21 -100 -17 -17 -20 -17
-65 7 -26 14 -60 44 -77 68 -84 118 -159 199 -410 444 -176 170 -316 297 -390
352 -63 48 -122 98 -131 111 -19 28 -29 94 -20 128 7 28 54 90 91 119 60 47
164 60 305 38z m3884 -689 c45 -49 89 -307 67 -384 -17 -56 -56 -106 -97 -123
-39 -17 -104 -6 -134 21 -28 25 -43 81 -36 131 5 42 90 276 123 342 19 37 50
43 77 13z m1790 -468 c4 -13 3 -30 -2 -38 -8 -15 -10 -15 -22 -1 -7 9 -15 35
-17 58 -5 40 -5 41 15 22 11 -10 23 -29 26 -41z"/>
<path d="M29015 17919 c-99 -6 -122 -15 -221 -87 -41 -29 -78 -67 -104 -106
-22 -34 -51 -76 -65 -95 -14 -19 -32 -56 -40 -84 -8 -27 -30 -66 -48 -86 -26
-28 -39 -58 -57 -129 -13 -51 -31 -100 -39 -110 -37 -41 -52 -78 -94 -248 -25
-98 -57 -219 -72 -269 -36 -122 -51 -237 -71 -525 -16 -245 -16 -332 6 -635
17 -229 29 -304 69 -430 21 -66 46 -147 56 -180 9 -33 30 -84 46 -113 16 -29
39 -76 50 -105 36 -91 204 -330 288 -407 15 -14 44 -46 65 -73 52 -63 76 -68
124 -26 21 19 47 39 58 45 26 16 10 41 -49 74 -52 29 -65 40 -167 147 -91 96
-187 229 -217 300 -12 29 -37 78 -57 110 -29 48 -38 77 -52 163 -8 58 -29 144
-45 193 -29 85 -30 90 -18 168 13 92 9 160 -21 339 -15 92 -22 191 -27 375 -7
287 3 388 47 498 16 42 35 119 45 185 17 115 30 164 60 222 10 18 23 69 31
113 12 66 21 90 53 131 40 53 61 102 61 142 0 14 14 37 36 56 19 18 50 57 69
88 39 64 166 169 230 190 28 9 114 14 285 16 135 1 257 5 273 9 27 7 31 2 28
-36 -2 -24 31 -48 105 -74 72 -26 106 -55 165 -144 23 -35 29 -55 29 -99 0
-47 4 -59 35 -95 60 -70 47 -147 -25 -147 -42 0 -50 -17 -50 -104 l0 -79 -41
-38 c-35 -32 -39 -40 -29 -58 6 -11 23 -23 38 -26 80 -15 200 -48 219 -61 13
-8 31 -29 40 -47 17 -30 18 -82 15 -832 -2 -481 -7 -821 -13 -852 -18 -94 -95
-133 -141 -72 -57 76 -75 89 -119 89 -46 0 -105 -38 -204 -132 -179 -169 -211
-187 -320 -188 -89 0 -139 14 -195 55 -25 18 -64 42 -86 53 -23 12 -55 39 -72
60 -17 21 -49 51 -71 66 -26 18 -51 50 -75 95 -49 95 -54 97 -105 61 -27 -20
-41 -38 -41 -53 0 -13 27 -64 60 -114 45 -67 73 -99 110 -123 28 -18 64 -49
80 -71 17 -21 57 -53 88 -70 31 -18 74 -47 95 -65 68 -57 229 -82 319 -50 39
14 145 94 213 161 22 22 70 55 106 74 83 44 104 39 153 -34 l36 -55 26 25 c44
44 86 31 130 -39 29 -46 46 -56 100 -56 26 0 33 5 38 26 11 41 8 184 -4 244
-15 75 -15 1683 0 1830 6 58 14 256 18 440 9 365 8 362 70 428 38 40 78 42
122 6 36 -31 75 -103 85 -158 4 -20 10 -34 13 -31 14 13 52 142 52 174 0 57
-115 212 -177 237 -41 18 -123 17 -146 0 -25 -19 -80 -138 -102 -220 -23 -87
-74 -146 -126 -146 -47 0 -56 8 -78 71 -28 82 -44 109 -96 159 l-46 45 -77 1
-77 1 2 27 c4 58 -91 83 -332 88 -77 2 -180 0 -230 -3z"/>
<path d="M31443 17915 c-49 -21 -72 -77 -98 -243 -25 -156 -27 -269 -11 -491
21 -279 21 -598 2 -646 -8 -19 -19 -35 -24 -35 -4 0 -44 -34 -88 -76 l-79 -76
-147 6 c-88 4 -163 12 -189 21 -53 19 -89 26 -90 17 -6 -56 -37 -107 -72 -118
-12 -4 -49 -10 -81 -13 -66 -7 -82 -23 -39 -39 27 -10 474 -28 577 -23 54 2
88 17 136 58 18 15 60 42 94 59 74 37 90 65 107 190 15 110 14 401 -2 639 -12
194 -8 379 10 435 36 111 97 110 216 -3 l30 -28 17 22 c28 33 22 63 -33 178
-58 120 -69 136 -121 162 -44 22 -71 23 -115 4z"/>
<path d="M26462 17577 c-68 -21 -122 -110 -122 -202 0 -22 -7 -62 -16 -90 -11
-36 -13 -65 -7 -105 4 -30 8 -147 9 -260 1 -113 4 -290 7 -395 l5 -189 28 -24
27 -24 246 4 c265 5 308 12 361 62 14 13 53 42 87 63 34 21 76 57 93 78 16 22
43 57 59 78 45 58 66 159 65 307 -1 82 -7 141 -16 172 -34 105 -188 296 -273
340 -22 11 -55 34 -73 49 -18 16 -37 29 -42 29 -4 0 -15 3 -24 6 -29 11 -19
-49 14 -91 21 -27 30 -49 30 -75 0 -42 16 -60 100 -110 39 -23 70 -53 108
-106 79 -110 105 -203 83 -303 -14 -67 -87 -171 -150 -213 -25 -17 -61 -44
-78 -59 -47 -41 -102 -52 -215 -46 -123 8 -163 23 -172 68 -8 39 -29 325 -28
384 0 22 16 87 35 145 34 104 34 105 83 132 88 47 93 63 28 85 -21 7 -60 35
-85 61 -25 26 -60 57 -78 70 -56 42 -35 100 41 114 14 3 57 -3 95 -13 85 -22
153 -25 153 -5 0 25 -34 57 -70 65 -20 4 -67 4 -105 -1 -61 -7 -99 -6 -155 6
-8 2 -30 -1 -48 -7z m21 -957 c8 0 8 -3 0 -11 -17 -17 -32 -2 -25 24 5 18 7
19 10 5 2 -10 9 -18 15 -18z m35 -101 c23 -20 42 -43 42 -52 0 -21 -47 -57
-76 -57 -29 0 -64 33 -64 59 0 31 29 89 43 87 8 -1 33 -18 55 -37z"/>
<path d="M30555 17470 c-8 -13 4 -57 20 -70 18 -15 24 7 13 48 -9 32 -21 41
-33 22z"/>
<path d="M29255 17465 c-5 -2 -31 -6 -57 -10 -26 -3 -58 -15 -73 -27 -25 -19
-25 -21 -9 -39 9 -11 13 -19 8 -19 -5 0 -2 -5 6 -11 11 -7 -10 -9 -72 -4 -93
6 -120 -1 -138 -35 -9 -17 -5 -22 30 -40 45 -23 52 -48 20 -80 -27 -27 -56
-25 -86 7 -31 34 -48 26 -84 -40 -14 -25 -35 -57 -47 -69 -29 -31 -133 -330
-133 -382 0 -13 -12 -50 -27 -82 -20 -44 -26 -74 -25 -119 0 -57 -2 -62 -38
-100 -47 -48 -62 -84 -54 -131 3 -19 -2 -68 -11 -109 -15 -64 -15 -85 -5 -138
11 -54 10 -67 -4 -101 -18 -44 -21 -143 -5 -179 13 -29 106 -74 167 -80 37 -5
61 4 73 26 0 1 5 56 10 122 6 66 13 163 18 215 4 52 13 109 20 125 7 17 14 59
16 94 3 46 10 73 28 100 31 47 36 63 38 141 2 75 6 83 58 144 21 25 49 73 62
107 15 39 38 75 62 98 21 20 49 57 62 82 16 32 34 50 57 60 18 7 52 34 75 59
l42 45 128 2 c70 2 140 3 156 3 20 0 27 5 27 18 0 36 -33 52 -109 56 -85 5
-100 15 -131 92 -38 94 -7 132 112 137 49 2 64 6 66 19 2 12 -7 20 -35 27 -42
11 -182 23 -198 16z m-529 -763 c48 -62 30 -137 -26 -109 -30 15 -59 72 -52
101 12 51 42 53 78 8z"/>
<path d="M31621 17394 c-12 -15 -21 -29 -21 -33 0 -3 -5 -35 -10 -69 -7 -42
-7 -82 -1 -116 6 -33 6 -114 0 -221 -7 -141 -6 -180 7 -231 12 -50 25 -174 25
-246 0 -10 4 -20 8 -23 5 -2 2 -28 -6 -57 -14 -54 -10 -156 8 -228 5 -20 11
-130 14 -245 6 -194 8 -215 32 -280 22 -58 26 -84 24 -155 -1 -47 3 -104 10
-127 9 -32 8 -54 -1 -93 -11 -45 -10 -60 5 -111 15 -49 16 -66 7 -98 -16 -52
-15 -101 3 -145 15 -35 14 -42 -6 -101 -20 -59 -21 -71 -10 -142 15 -99 1
-275 -24 -303 -22 -24 -152 -68 -189 -64 -54 6 -68 46 -87 245 -10 112 -10
198 2 475 19 472 19 506 -7 541 -18 23 -29 28 -73 31 -51 3 -81 -9 -81 -31 0
-5 25 -33 55 -62 53 -52 55 -55 55 -107 0 -29 -6 -93 -14 -143 -31 -192 -41
-354 -39 -610 2 -288 8 -325 57 -353 16 -10 38 -25 47 -34 15 -14 24 -15 50
-6 38 13 164 4 235 -18 42 -13 55 -23 73 -55 12 -22 23 -52 23 -69 1 -28 -16
-61 -30 -58 -4 1 -42 -4 -84 -12 -64 -10 -78 -16 -78 -31 0 -29 39 -49 98 -49
78 0 109 20 142 93 46 103 41 163 -16 190 -35 17 -45 46 -21 64 6 5 33 17 60
27 26 10 54 24 62 33 18 17 21 114 4 144 -8 15 -6 31 7 65 13 35 16 63 11 127
-8 111 -11 117 -57 115 -49 -2 -90 24 -90 57 0 33 53 67 97 63 l31 -4 -2 78
c-1 72 -3 80 -29 102 -33 28 -35 65 -6 92 42 38 46 68 44 289 -2 166 -6 219
-19 254 -11 30 -14 59 -10 95 5 41 0 71 -25 151 -36 116 -55 139 -107 131 -26
-5 -36 -2 -41 10 -4 10 1 20 10 26 25 13 21 31 -17 77 -44 52 -60 101 -53 160
6 50 60 163 65 136 2 -8 7 -15 12 -15 4 0 11 -12 15 -27 12 -50 45 -93 70 -93
35 0 47 54 24 118 -8 24 -7 48 6 104 19 84 14 175 -15 248 -10 27 -15 53 -10
65 8 23 22 235 20 315 0 30 -9 71 -18 90 -15 31 -22 35 -62 38 -25 2 -60 12
-78 23 -44 25 -57 24 -81 -7z"/>
<path d="M29605 17350 c-7 -12 12 -50 25 -50 5 0 21 -22 36 -50 22 -40 33 -51
60 -56 18 -3 37 -3 42 0 6 3 13 33 17 67 6 47 4 64 -7 75 -16 17 -164 28 -173
14z"/>
<path d="M30565 17294 c-14 -11 -38 -14 -80 -12 -81 4 -86 -6 -84 -182 0 -74
-2 -155 -6 -179 -4 -25 -3 -67 3 -95 6 -28 14 -67 17 -86 7 -44 22 -69 33 -54
11 18 72 8 95 -15 18 -18 20 -24 9 -41 -18 -29 -15 -64 8 -90 27 -31 50 -20
50 25 0 20 -4 44 -9 54 -10 17 2 67 23 101 6 7 9 55 7 105 -1 49 4 136 11 192
11 98 11 107 -12 185 -27 99 -37 113 -65 92z"/>
<path d="M27616 17010 c-3 -8 -7 -40 -9 -70 -7 -78 -58 -238 -100 -307 -19
-32 -42 -74 -50 -94 -8 -20 -35 -56 -59 -80 -25 -24 -56 -68 -68 -97 -17 -40
-36 -64 -76 -93 -114 -84 -131 -127 -130 -329 1 -130 4 -161 20 -193 23 -47
45 -45 62 7 18 51 31 65 54 59 14 -4 21 -18 26 -50 9 -61 0 -103 -30 -148 -30
-43 -28 -85 3 -118 25 -25 49 -12 63 35 7 23 24 48 41 60 l30 21 -7 92 c-10
131 2 176 63 231 27 24 54 59 61 77 7 17 31 49 52 69 38 35 39 40 36 88 -4 40
-1 53 12 60 11 6 21 5 27 -1 6 -6 20 -8 32 -4 16 5 21 15 21 40 0 49 8 64 49
84 72 37 76 47 78 200 2 169 -9 199 -91 260 -65 48 -71 59 -79 129 -7 60 -22
97 -31 72z"/>
<path d="M30430 16599 c0 -17 4 -28 10 -24 6 3 10 17 10 31 0 13 -4 24 -10 24
-5 0 -10 -14 -10 -31z"/>
<path d="M30708 16005 c-2 -3 -69 -5 -149 -6 -85 0 -149 -5 -156 -11 -14 -11
-17 -55 -7 -82 8 -22 30 -20 47 4 30 44 64 48 372 44 199 -3 299 0 318 7 29
12 173 -4 211 -23 22 -12 39 2 30 25 -5 15 -44 32 -93 42 -13 2 -40 -3 -62
-12 -39 -15 -61 -14 -149 6 -45 10 -352 15 -362 6z"/>
<path d="M31025 15831 c-28 -10 -61 -23 -73 -30 -25 -13 -171 -61 -187 -61 -6
0 -31 11 -57 25 -61 32 -87 32 -133 -5 -37 -29 -77 -41 -125 -37 -23 2 -25 -2
-28 -46 -4 -63 9 -77 68 -77 40 0 52 -4 69 -26 25 -32 26 -59 6 -108 -18 -42
-52 -67 -94 -68 -26 -1 -32 -6 -37 -34 -10 -54 -3 -66 54 -84 60 -20 67 -25
76 -57 10 -31 -32 -73 -74 -74 -47 -2 -50 -3 -60 -19 -14 -21 -12 -74 2 -88 7
-7 27 -12 45 -12 31 0 73 -28 73 -49 0 -23 -34 -42 -71 -40 -21 2 -44 -2 -51
-9 -9 -9 -17 -81 -24 -220 -10 -171 -15 -217 -33 -265 -25 -64 -42 -77 -100
-77 -49 0 -61 16 -87 110 -16 63 -42 120 -54 120 -3 0 -14 -7 -24 -15 -37 -28
-73 -19 -124 33 -26 26 -66 64 -89 85 l-43 37 -34 -67 c-20 -41 -47 -78 -67
-92 -19 -13 -54 -44 -79 -68 -74 -72 -181 -163 -192 -163 -5 0 -64 -26 -131
-59 -80 -38 -140 -61 -173 -64 -28 -3 -71 -17 -97 -30 -26 -14 -67 -33 -92
-42 -74 -29 -54 -72 44 -94 52 -11 76 -2 84 31 4 13 16 29 28 36 31 19 117 26
165 13 111 -30 24 -111 -118 -111 -58 0 -65 -20 -15 -47 25 -14 63 -18 167
-21 l135 -4 53 36 c29 19 85 45 123 56 38 12 84 33 102 49 17 15 48 38 67 51
19 13 52 39 72 58 l38 36 284 4 284 3 20 -29 c12 -16 26 -51 32 -78 17 -78 18
-79 39 -60 11 10 21 37 25 72 3 30 14 67 24 82 13 20 18 52 19 137 5 181 4
204 -2 365 -4 85 -7 209 -9 275 -1 66 -7 139 -13 163 -8 30 -8 54 -1 80 6 21
8 70 4 115 -9 112 -4 119 136 199 59 33 75 38 132 38 79 0 201 36 251 75 28
21 35 33 35 60 0 50 -8 64 -51 85 -46 24 -51 24 -114 1z"/>
<path d="M28435 15546 c-28 -66 2 -238 40 -232 27 4 125 106 132 136 4 25 -2
36 -45 79 -39 39 -58 51 -82 51 -26 0 -33 -6 -45 -34z"/>
<path d="M27427 15531 c-2 -10 2 -33 9 -51 12 -27 16 -30 29 -20 19 16 19 40
-1 68 -19 27 -30 28 -37 3z"/>
<path d="M27375 15350 c-3 -5 -1 -18 4 -27 11 -20 12 -19 16 15 2 23 -9 30
-20 12z"/>
<path d="M30440 14030 c-14 -4 -51 -8 -82 -9 -65 -1 -88 -8 -88 -26 0 -27 32
-38 125 -42 l95 -5 31 31 c17 17 29 37 27 44 -5 14 -72 19 -108 7z"/>
</g>
</svg>
